# xmcd
#
# Track frame offsets: 
#        150
#        22042
#        50075
#        69219
#        84587
#        98729
#        120619
#        136585
#        158602
#        185203
#        208128
#        232650
#        246524
#        262027
#        281077
#        301234
#
# Disc length: 4426 seconds
#
# Revision: 0
# Processed by: cddbd v1.5.2PL0 Copyright (c) Steve Scherf et al.
# Submitted via: ExactAudioCopy v0.95b3
#
DISCID=df114810
DTITLE=Various Artist - Wojciech Mann prezentuje Nieprzeboje. Krok 2
DYEAR=2015
DGENRE=Blues
TTITLE0=S.U.N. - Nomad
TTITLE1=Black Star Riders - Blues Ain't So Bad
TTITLE2=Cee Cee James- Wounds
TTITLE3=Grand Funk Railroad - We're an American Band
TTITLE4=Montgomery Gentry - Work Hard, Play Harder
TTITLE5=Larry Tillery - All Night Long
TTITLE6=Dale Watson - Give Me More Kisses
TTITLE7=Rita Chiarelli - 1000 miles
TTITLE8=Spin Doctors - So Bad
TTITLE9=Dana Fuchs - So Hard to Move
TTITLE10=Vargas Blues Band - Blues Latino
TTITLE11=Federal Charm - Tell Your Friends
TTITLE12=The Western Sizzlers - Break the Rules
TTITLE13=Leslie West - Dyin' Since the Day I Was Born
TTITLE14=Tony Joe White and Lucinda Williams - Closing in on the Fire
TTITLE15=Sugarloaf - Green-Eyed Lady
EXTD=
EXTT0=
EXTT1=
EXTT2=
EXTT3=
EXTT4=
EXTT5=
EXTT6=
EXTT7=
EXTT8=
EXTT9=
EXTT10=
EXTT11=
EXTT12=
EXTT13=
EXTT14=
EXTT15=
PLAYORDER=
